<svg width="55" height="45" viewBox="0 0 55 45" fill="none" xmlns="http://www.w3.org/2000/svg">
<path d="M9.86622 43.81L39.8874 0.495025H47.3613L17.3401 43.81H9.86622ZM13.6974 23.8851C11.562 23.8851 9.6778 23.4107 8.04485 22.4619C6.4119 21.4718 5.11391 20.0899 4.15089 18.316C3.22974 16.5009 2.76917 14.3764 2.76917 11.9425C2.76917 9.50866 3.22974 7.40479 4.15089 5.63094C5.11391 3.85709 6.4119 2.47514 8.04485 1.48508C9.6778 0.495028 11.562 0 13.6974 0C15.8328 0 17.7169 0.495028 19.3499 1.48508C20.9828 2.47514 22.2599 3.85709 23.1811 5.63094C24.1022 7.40479 24.5628 9.50866 24.5628 11.9425C24.5628 14.3764 24.1022 16.5009 23.1811 18.316C22.2599 20.0899 20.9828 21.4718 19.3499 22.4619C17.7169 23.4107 15.8328 23.8851 13.6974 23.8851ZM13.6974 18.8111C15.0791 18.8111 16.1887 18.2542 17.0261 17.1403C17.8635 15.9853 18.2822 14.2527 18.2822 11.9425C18.2822 9.63242 17.8635 7.92044 17.0261 6.80663C16.1887 5.65157 15.0791 5.07403 13.6974 5.07403C12.3575 5.07403 11.2479 5.65157 10.3687 6.80663C9.53126 7.92044 9.11255 9.63242 9.11255 11.9425C9.11255 14.2114 9.53126 15.9234 10.3687 17.0785C11.2479 18.2335 12.3575 18.8111 13.6974 18.8111ZM43.5301 44.305C41.4366 44.305 39.5524 43.8306 37.8776 42.8818C36.2447 41.8917 34.9676 40.5098 34.0465 38.7359C33.1253 36.9208 32.6647 34.7963 32.6647 32.3624C32.6647 29.9286 33.1253 27.8247 34.0465 26.0508C34.9676 24.277 36.2447 22.895 37.8776 21.905C39.5524 20.9149 41.4366 20.4199 43.5301 20.4199C45.7074 20.4199 47.6125 20.9149 49.2455 21.905C50.8784 22.895 52.1555 24.277 53.0766 26.0508C53.9978 27.8247 54.4583 29.9286 54.4583 32.3624C54.4583 34.7963 53.9978 36.9208 53.0766 38.7359C52.1555 40.5098 50.8784 41.8917 49.2455 42.8818C47.6125 43.8306 45.7074 44.305 43.5301 44.305ZM43.5301 39.231C44.9119 39.231 46.0214 38.6741 46.8588 37.5602C47.6962 36.4052 48.115 34.6726 48.115 32.3624C48.115 30.0936 47.6962 28.3816 46.8588 27.2265C46.0214 26.0715 44.9119 25.4939 43.5301 25.4939C42.1903 25.4939 41.0807 26.0715 40.2014 27.2265C39.364 28.3403 38.9453 30.0523 38.9453 32.3624C38.9453 34.6726 39.364 36.4052 40.2014 37.5602C41.0807 38.6741 42.1903 39.231 43.5301 39.231Z" fill="#2F5808"/>
<path d="M7.09705 43.81L37.1182 0.495025H44.5921L14.5709 43.81H7.09705ZM10.9282 23.8851C8.79281 23.8851 6.90864 23.4107 5.27569 22.4619C3.64274 21.4718 2.34475 20.0899 1.38173 18.316C0.460576 16.5009 0 14.3764 0 11.9425C0 9.50866 0.460576 7.40479 1.38173 5.63094C2.34475 3.85709 3.64274 2.47514 5.27569 1.48508C6.90864 0.495028 8.79281 0 10.9282 0C13.0636 0 14.9478 0.495028 16.5807 1.48508C18.2137 2.47514 19.4907 3.85709 20.4119 5.63094C21.333 7.40479 21.7936 9.50866 21.7936 11.9425C21.7936 14.3764 21.333 16.5009 20.4119 18.316C19.4907 20.0899 18.2137 21.4718 16.5807 22.4619C14.9478 23.4107 13.0636 23.8851 10.9282 23.8851ZM10.9282 18.8111C12.3099 18.8111 13.4195 18.2542 14.2569 17.1403C15.0943 15.9853 15.513 14.2527 15.513 11.9425C15.513 9.63242 15.0943 7.92044 14.2569 6.80663C13.4195 5.65157 12.3099 5.07403 10.9282 5.07403C9.58835 5.07403 8.47878 5.65157 7.5995 6.80663C6.76209 7.92044 6.34339 9.63242 6.34339 11.9425C6.34339 14.2114 6.76209 15.9234 7.5995 17.0785C8.47878 18.2335 9.58835 18.8111 10.9282 18.8111ZM40.761 44.305C38.6674 44.305 36.7833 43.8306 35.1084 42.8818C33.4755 41.8917 32.1984 40.5098 31.2773 38.7359C30.3561 36.9208 29.8956 34.7963 29.8956 32.3624C29.8956 29.9286 30.3561 27.8247 31.2773 26.0508C32.1984 24.277 33.4755 22.895 35.1084 21.905C36.7833 20.9149 38.6674 20.4199 40.761 20.4199C42.9382 20.4199 44.8433 20.9149 46.4763 21.905C48.1092 22.895 49.3863 24.277 50.3074 26.0508C51.2286 27.8247 51.6892 29.9286 51.6892 32.3624C51.6892 34.7963 51.2286 36.9208 50.3074 38.7359C49.3863 40.5098 48.1092 41.8917 46.4763 42.8818C44.8433 43.8306 42.9382 44.305 40.761 44.305ZM40.761 39.231C42.1427 39.231 43.2523 38.6741 44.0897 37.5602C44.9271 36.4052 45.3458 34.6726 45.3458 32.3624C45.3458 30.0936 44.9271 28.3816 44.0897 27.2265C43.2523 26.0715 42.1427 25.4939 40.761 25.4939C39.4211 25.4939 38.3115 26.0715 37.4323 27.2265C36.5948 28.3403 36.1761 30.0523 36.1761 32.3624C36.1761 34.6726 36.5948 36.4052 37.4323 37.5602C38.3115 38.6741 39.4211 39.231 40.761 39.231Z" fill="#559D11"/>
</svg>
