<svg width="45" height="45" viewBox="0 0 45 45" fill="none" xmlns="http://www.w3.org/2000/svg">
<g clip-path="url(#clip0_0_421)">
<path d="M22.5 44.0183C34.6553 44.0183 44.5092 34.1645 44.5092 22.0092C44.5092 9.85384 34.6553 0 22.5 0C10.3447 0 0.490845 9.85384 0.490845 22.0092C0.490845 34.1645 10.3447 44.0183 22.5 44.0183Z" fill="url(#paint0_linear_0_421)"/>
<path d="M31.7734 26.0659L29.3524 23.6248C28.9522 23.2247 28.412 22.9846 27.9118 22.9846C27.3715 22.9846 26.8913 23.2047 26.4712 23.6248L25.0706 25.0254C25.0106 24.9854 24.9305 24.9454 24.8705 24.9254C24.8705 24.9254 24.8505 24.9254 24.8505 24.9054L24.8305 24.8854C24.6504 24.7653 24.4503 24.6453 24.2102 24.5452C22.9897 23.7849 21.8492 22.7245 20.6888 21.3039C20.1485 20.6236 19.7684 20.0233 19.4683 19.3631C19.7884 19.103 20.0285 18.8428 20.2086 18.6428L20.8288 18.0225C21.309 17.5823 21.5491 17.0821 21.5491 16.5619C21.5491 16.0217 21.309 15.5215 20.8488 15.0413L18.948 13.1405C18.768 12.9604 18.5879 12.7803 18.3878 12.6002C17.9876 12.2201 17.4874 12 16.9672 12C16.387 12 15.9068 12.2001 15.4666 12.6403L14.006 14.1009C13.4257 14.6411 13.0856 15.3214 13.0056 16.1617V16.1817C12.9655 17.2222 13.1256 18.1826 13.5658 19.3831C14.2661 21.2639 15.3265 23.0246 16.9072 24.9654C18.968 27.2864 21.289 29.0871 23.8701 30.3276L23.9301 30.3476C24.6904 30.6878 26.131 31.328 27.7317 31.4281H27.9518C29.0122 31.4281 29.8126 31.0879 30.4728 30.3676C30.7129 30.0875 30.973 29.8274 31.1931 29.5873C31.3732 29.4473 31.4933 29.3072 31.6133 29.1671L31.7734 29.0071L31.8134 28.9671C32.6537 28.0467 32.6537 26.9262 31.7734 26.0659ZM31.0731 28.2868L30.873 28.4869L30.853 28.5269C30.753 28.6469 30.6729 28.747 30.5729 28.827L30.5129 28.887C30.2728 29.1271 29.9926 29.4072 29.7125 29.7274C29.2523 30.2276 28.7321 30.4477 27.9518 30.4477H27.7917C26.3911 30.3476 25.1106 29.7874 24.3503 29.4473L24.3103 29.4272C21.8492 28.2468 19.6283 26.526 17.6875 24.3251C16.1669 22.4844 15.1665 20.8037 14.5062 19.0429C14.106 17.9425 13.966 17.1421 14.006 16.2418C14.066 15.6615 14.2861 15.2013 14.6863 14.8412L16.1669 13.3606C16.407 13.1205 16.6471 13.0204 16.9472 13.0204C17.2073 13.0204 17.4474 13.1405 17.6675 13.3406L17.6875 13.3606C17.8676 13.5206 18.0477 13.7007 18.2277 13.8808L20.1285 15.7816C20.4887 16.1417 20.5487 16.4218 20.5487 16.5819C20.5487 16.742 20.5087 16.9821 20.1285 17.3222L19.4883 17.9625C19.2682 18.2026 19.0081 18.4627 18.6679 18.7428L18.6279 18.7828L18.5879 18.8428C18.4078 19.0829 18.3878 19.303 18.4878 19.6232L18.5079 19.7032L18.5279 19.7832C18.868 20.5235 19.2882 21.2038 19.8884 21.9641C21.1289 23.4848 22.3695 24.6253 23.69 25.4456L23.75 25.4856C23.9101 25.5656 24.0702 25.6457 24.2102 25.7257C24.2703 25.7857 24.3503 25.8258 24.4103 25.8458C24.4903 25.8858 24.5504 25.9058 24.5904 25.9458L24.7304 26.0458H24.7705L24.8305 26.0659C24.9505 26.1059 25.0306 26.1059 25.0906 26.1059C25.2907 26.1059 25.4708 26.0258 25.6508 25.8458L27.1515 24.3451C27.3916 24.105 27.6116 24.005 27.8918 24.005C28.1919 24.005 28.472 24.1851 28.6321 24.3451L31.0731 26.7862C31.5533 27.2664 31.5733 27.7666 31.0731 28.2868Z" fill="black"/>
</g>
<defs>
<linearGradient id="paint0_linear_0_421" x1="0.490845" y1="22.0092" x2="44.5092" y2="22.0092" gradientUnits="userSpaceOnUse">
<stop stop-color="#FFE594"/>
<stop offset="1" stop-color="#FFD968"/>
</linearGradient>
<clipPath id="clip0_0_421">
<rect width="44.0183" height="44.0183" fill="white" transform="translate(0.490845)"/>
</clipPath>
</defs>
</svg>
