<svg width="38" height="38" viewBox="0 0 38 38" fill="none" xmlns="http://www.w3.org/2000/svg">
<g clip-path="url(#clip0_0_69)">
<path d="M19.3266 37.2245C29.6058 37.2245 37.9388 28.8915 37.9388 18.6122C37.9388 8.33301 29.6058 0 19.3266 0C9.04737 0 0.714355 8.33301 0.714355 18.6122C0.714355 28.8915 9.04737 37.2245 19.3266 37.2245Z" fill="url(#paint0_linear_0_69)"/>
<path d="M7.64605 19.5226C9.8218 18.3241 12.2505 17.3239 14.5198 16.3185C18.4239 14.6718 22.3435 13.0536 26.3026 11.5471C27.073 11.2904 28.457 11.0394 28.5927 12.1809C28.5184 13.7968 28.2127 15.4032 28.003 17.0096C27.4708 20.5422 26.8557 24.0627 26.2558 27.5836C26.0491 28.7564 24.5799 29.3636 23.6398 28.6131C21.3806 27.087 19.104 25.5758 16.8737 24.0144C16.1431 23.272 16.8206 22.2059 17.4731 21.6758C19.3338 19.842 21.3072 18.284 23.0707 16.3555C23.5464 15.2067 22.1409 16.1749 21.6773 16.4715C19.1299 18.227 16.6448 20.0896 13.9591 21.6324C12.5872 22.3876 10.9882 21.7422 9.61699 21.3208C8.38748 20.8117 6.58593 20.2988 7.64605 19.5226Z" fill="white"/>
</g>
<defs>
<linearGradient id="paint0_linear_0_69" x1="14.6757" y1="1.55226" x2="5.36959" y2="23.2653" gradientUnits="userSpaceOnUse">
<stop stop-color="#37AEE2"/>
<stop offset="1" stop-color="#1E96C8"/>
</linearGradient>
<clipPath id="clip0_0_69">
<rect width="37.2245" height="37.2245" fill="white" transform="translate(0.714355)"/>
</clipPath>
</defs>
</svg>
