<svg width="38" height="38" viewBox="0 0 38 38" fill="none" xmlns="http://www.w3.org/2000/svg">
<g clip-path="url(#clip0_0_72)">
<path d="M18.6122 37.2245C28.8915 37.2245 37.2245 28.8915 37.2245 18.6122C37.2245 8.33301 28.8915 0 18.6122 0C8.33301 0 0 8.33301 0 18.6122C0 28.8915 8.33301 37.2245 18.6122 37.2245Z" fill="#25D366"/>
<path fill-rule="evenodd" clip-rule="evenodd" d="M19.2258 28.9672H19.2212C17.3689 28.9666 15.5488 28.5018 13.9323 27.6201L8.06531 29.1592L9.63541 23.4241C8.66687 21.7457 8.15728 19.8418 8.15806 17.8912C8.16054 11.7891 13.1254 6.82446 19.2256 6.82446C22.1863 6.82574 24.9651 7.97835 27.0546 10.0703C29.1441 12.1622 30.2942 14.9427 30.2931 17.8999C30.2907 24.0007 25.3278 28.9647 19.2258 28.9672ZM14.2042 25.6166L14.54 25.8159C15.9524 26.654 17.5714 27.0975 19.222 27.0981H19.2258C24.2958 27.0981 28.4224 22.9714 28.4244 17.8993C28.4254 15.4413 27.4695 13.1302 25.7327 11.3915C23.996 9.65268 21.6864 8.69461 19.2293 8.69376C14.1553 8.69376 10.0287 12.82 10.0267 17.8919C10.026 19.63 10.5124 21.3227 11.4331 22.7873L11.6519 23.1353L10.7226 26.5298L14.2042 25.6166ZM24.4227 20.2827C24.6155 20.3759 24.7458 20.4389 24.8014 20.5317C24.8705 20.647 24.8705 21.2007 24.6402 21.8467C24.4097 22.4927 23.3049 23.0823 22.7736 23.1616C22.2972 23.2329 21.6942 23.2626 21.0318 23.052C20.6301 22.9246 20.1151 22.7545 19.4553 22.4695C16.8629 21.3501 15.1108 18.8374 14.7797 18.3625C14.7565 18.3292 14.7403 18.306 14.7312 18.2939L14.729 18.2909C14.5827 18.0957 13.6021 16.7873 13.6021 15.4333C13.6021 14.1594 14.2277 13.4918 14.5158 13.1844C14.5355 13.1634 14.5537 13.144 14.5699 13.1263C14.8234 12.8494 15.123 12.7802 15.3073 12.7802C15.4917 12.7802 15.6762 12.7819 15.8374 12.79C15.8572 12.791 15.878 12.7909 15.8993 12.7907C16.0604 12.7898 16.2614 12.7886 16.4596 13.2647C16.5358 13.4479 16.6474 13.7195 16.7651 14.006C17.003 14.5853 17.266 15.2254 17.3122 15.318C17.3814 15.4564 17.4274 15.6179 17.3352 15.8025C17.3214 15.8302 17.3086 15.8563 17.2964 15.8813C17.2271 16.0226 17.1762 16.1266 17.0587 16.2638C17.0125 16.3177 16.9648 16.3759 16.917 16.4341C16.8218 16.5499 16.7267 16.6658 16.6439 16.7483C16.5054 16.8862 16.3613 17.0358 16.5226 17.3126C16.6839 17.5895 17.239 18.495 18.061 19.2284C18.9448 20.0166 19.7129 20.3498 20.1022 20.5186C20.1782 20.5516 20.2397 20.5783 20.2849 20.6009C20.5613 20.7394 20.7226 20.7162 20.884 20.5317C21.0453 20.3471 21.5753 19.7242 21.7596 19.4474C21.9439 19.1707 22.1283 19.2167 22.3818 19.3089C22.6354 19.4014 23.9949 20.0703 24.2715 20.2087C24.3254 20.2357 24.3759 20.2601 24.4227 20.2827Z" fill="#FDFDFD"/>
</g>
<defs>
<clipPath id="clip0_0_72">
<rect width="37.2245" height="37.2245" fill="white"/>
</clipPath>
</defs>
</svg>
