<svg width="178" height="56" viewBox="0 0 178 56" fill="none" xmlns="http://www.w3.org/2000/svg">
<path d="M69.6522 28C69.6522 33.3324 65.321 37.6552 59.9783 37.6552C54.6355 37.6552 50.3043 33.3324 50.3043 28C50.3043 22.6676 54.6355 18.3448 59.9783 18.3448C65.321 18.3448 69.6522 22.6676 69.6522 28Z" fill="#559D11"/>
<path d="M0.828087 39.5862V15.1625H13.0637L19.6748 29.1142L26.4175 15.1625H38.1268V39.5862H29.4435V24.3214L22.1745 39.5862H16.583L9.37983 24.3214V39.5862H0.828087Z" fill="black"/>
<path d="M58.3141 14.7357H59.7942C72.8521 14.7357 75.5492 21.7608 75.5492 26.8163V27.8011C75.5492 32.7909 72.885 40.013 59.7942 40.013H58.3141C45.2892 40.013 42.5592 32.7909 42.5592 27.8011V26.8163C42.5592 21.728 45.3221 14.7357 58.3141 14.7357ZM66.2738 27.44V27.0789C66.2738 24.7153 65.2213 21.3669 59.0377 21.3669C52.8542 21.3669 51.8345 24.7153 51.8345 27.0789V27.44C51.8345 29.8036 52.92 33.2833 59.0706 33.2833C65.2213 33.2833 66.2738 29.8036 66.2738 27.44Z" fill="black"/>
<path d="M80.0049 39.5862V15.1625H88.8856V23.7633H101.286V15.1625H110.133V39.5862H101.286V30.3288H88.8856V39.5862H80.0049Z" fill="black"/>
<path d="M124.21 39.5862V21.8921H114.409V15.1625H142.86V21.8921H133.058V39.5862H124.21Z" fill="black"/>
<path d="M168.22 39.5862V24.8466L156.017 39.5862H147.137V15.1625H156.017V29.9021L168.22 15.1625H177.068V39.5862H168.22Z" fill="black"/>
<path d="M0 47.3103H118.989V56H0V47.3103Z" fill="#559D11"/>
<path d="M118.989 47.3103H178V56H118.989V47.3103Z" fill="#383838"/>
<path d="M114.152 0H143.174V5.7931H114.152V0Z" fill="#559D11"/>
</svg>
